<svg xmlns="http://www.w3.org/2000/svg" width="48" height="48" viewBox="0 0 48 48">
  <!-- 圆形背景 -->
  <circle cx="24" cy="24" r="22" fill="#FFF5F0"/>
  <!-- 火焰路径（Lucide fire icon 风格） -->
  <path d="M24 42c-6.627 0-12-5.373-12-12 0-4.42 2.387-8.26 5.913-10.29
           C17.19 18.44 17 16.96 17 15.5
           c0-3.314 2.686-6 6-6 .552 0 1 .448 1 1
           s-.448 1-1 1c-2.21 0-4 1.79-4 4
           0 .552.448 1 1 1s1-.448 1-1
           c0-1.105.895-2 2-2 .763 0 1.442.432 1.796 1.068
           C21.59 13.24 25 15.5 25 15.5
           c1.654 0 3 1.346 3 3 0 2-1.5 3.5-1.5 3.5
           2 1 3.5 3.314 3.5 6.5 0 6.627-5.373 12-12 12z"
        fill="#FF5722"/>
  <!-- 火焰内侧高光 -->
  <path d="M24 38c-4.418 0-8-3.582-8-8 0-2.947 1.591-5.507 3.938-6.86
           C19.46 22.96 19 22.46 19 21.5
           c0-2.209 1.791-4 4-4 .552 0 1 .448 1 1
           s-.448 1-1 1c-1.105 0-2 .895-2 2 0 .552.448 1 1 1s1-.448 1-1
           c0-.763.442-1.442 1.068-1.796
           C23.93 18.24 27 20.5 27 20.5
           c1.103 0 2 .897 2 2 0 1.333-1 2.333-1 2.333
           1.333.667 2.333 2.21 2.333 4.333 0 4.418-3.582 8-8 8z"
        fill="#FF9800"/>
</svg>