<svg xmlns="http://www.w3.org/2000/svg" width="48" height="48" viewBox="0 0 48 48">
  <!-- 圆形背景 -->
  <circle cx="24" cy="24" r="22" fill="#E8FBFB"/>
  <!-- 星星/新标（Lucide sparkles icon 风格） -->
  <path d="M24 14l1.764 5.367a1 1 0 0 0 .95.633H32a1 1 0 0 1 .588 1.804l-4.618 3.357 1.764 5.367a1 1 0 0 1-1.536 1.072L24 28.6l-4.618 3.357a1 1 0 0 1-1.536-1.072l1.764-5.367-4.618-3.357A1 1 0 0 1 16 20h5.286a1 1 0 0 0 .95-.633L24 14z"
        fill="#26C6DA"/>
  <!-- 右上角小星星 -->
  <path d="M35 12l.882 2.683a1 1 0 0 0 .95.633H39a1 1 0 0 1 .588 1.804l-2.309 1.678.882 2.683a1 1 0 0 1-1.536 1.072L35 20.3l-2.309 1.678a1 1 0 0 1-1.536-1.072l.882-2.683-2.309-1.678A1 1 0 0 1 31 15.316h2.168a1 1 0 0 0 .95-.633L35 12z"
        fill="#4DD0E1"/>
  <!-- 左下角小星星 -->
  <path d="M15 30l.882 2.683a1 1 0 0 0 .95.633H19a1 1 0 0 1 .588 1.804l-2.309 1.678.882 2.683a1 1 0 0 1-1.536 1.072L15 38.3l-2.309 1.678a1 1 0 0 1-1.536-1.072l.882-2.683-2.309-1.678A1 1 0 0 1 11 33.316h2.168a1 1 0 0 0 .95-.633L15 30z"
        fill="#4DD0E1"/>
</svg>